<svg id="visual" viewBox="0 0 900 600" width="900" height="600" xmlns="http://www.w3.org/2000/svg" xmlns:xlink="http://www.w3.org/1999/xlink" version="1.1"><path d="M0 73L82 43L164 103L245 43L327 61L409 61L491 103L573 55L655 97L736 43L818 37L900 73L900 0L818 0L736 0L655 0L573 0L491 0L409 0L327 0L245 0L164 0L82 0L0 0Z" fill="#ffffff"></path><path d="M0 211L82 199L164 199L245 127L327 127L409 223L491 199L573 127L655 151L736 127L818 199L900 223L900 71L818 35L736 41L655 95L573 53L491 101L409 59L327 59L245 41L164 101L82 41L0 71Z" fill="#e2e3fc"></path><path d="M0 289L82 319L164 247L245 223L327 211L409 283L491 289L573 211L655 223L736 235L818 277L900 295L900 221L818 197L736 125L655 149L573 125L491 197L409 221L327 125L245 125L164 197L82 197L0 209Z" fill="#c4c7f9"></path><path d="M0 439L82 415L164 361L245 397L327 505L409 487L491 475L573 499L655 349L736 445L818 487L900 445L900 293L818 275L736 233L655 221L573 209L491 287L409 281L327 209L245 221L164 245L82 317L0 287Z" fill="#a4adf5"></path><path d="M0 601L82 601L164 601L245 601L327 601L409 601L491 601L573 601L655 601L736 601L818 601L900 601L900 443L818 485L736 443L655 347L573 497L491 473L409 485L327 503L245 395L164 359L82 413L0 437Z" fill="#8093f1"></path></svg>